<?xml version="1.0" encoding="utf-8"?>
<!-- Generator: Adobe Illustrator 24.0.1, SVG Export Plug-In . SVG Version: 6.00 Build 0)  -->
<svg version="1.1" id="Layer_2" xmlns="http://www.w3.org/2000/svg" xmlns:xlink="http://www.w3.org/1999/xlink" x="0px" y="0px"
	 viewBox="0 0 390 93" style="enable-background:new 0 0 390 93;" xml:space="preserve">
<style type="text/css">
	.st0{fill:#FFFFFF;}
	.st1{fill:url(#SVGID_1_);}
</style>
<path class="st0" d="M107.57,81.13c0-3.27,2.41-5.82,6.03-5.82c1.98,0,3.23,0.69,3.75,1.08l-0.99,1.77
	c-0.26-0.17-1.16-0.78-2.63-0.78c-2.33,0-3.88,1.46-3.88,3.7s1.51,3.75,3.88,3.75c1.46,0,2.37-0.56,2.63-0.78l0.95,1.77
	c-0.52,0.39-1.72,1.08-3.75,1.08C109.98,86.91,107.57,84.36,107.57,81.13"/>
<g>
	<path class="st0" d="M152.41,39.48l-3.14,22.18h-11.46l2.89-20.81c0.95-6.55-1.85-9.86-6.63-9.86c-5.34,0-8.92,3.58-9.69,9.69
		l-2.97,20.98h-11.46l5.69-40.19h9.26l-0.95,6.03c2.8-3.92,7.71-6.81,14.17-6.81C148.28,20.7,154.05,27.93,152.41,39.48"/>
	<path class="st0" d="M194.24,44.47h-27.61c0.6,4.82,3.83,8.31,9.95,8.31c4.74,0,7.58-2.2,9.18-3.4l4.82,7.71
		c-2.54,2.11-7.71,5.43-15.81,5.43c-12.15,0-19.21-7.97-19.21-18.35c0-14.43,10.12-23.43,22.36-23.43c11.2,0,17.32,6.98,17.32,16.8
		C195.23,41.67,194.24,44.47,194.24,44.47 M167.45,37.11h17.14v-0.17c0-4.26-2.8-7.06-7.54-7.06
		C172.4,29.87,168.91,32.59,167.45,37.11"/>
	<polygon class="st0" points="262.86,21.47 242.14,61.66 233.96,61.66 228.1,37.28 215.3,61.66 206.86,61.66 196.61,21.47 
		207.89,21.47 213.49,47.02 226.25,21.47 233.96,21.47 239.73,47.62 251.88,21.47 	"/>
	<path class="st0" d="M298.96,44.13c0-14.34,10.3-23.43,22.83-23.43c11.98,0,19.13,7.88,19.13,18.44c0,14.26-10.3,23.35-22.92,23.35
		C306.2,62.48,298.96,54.6,298.96,44.13 M329.37,40.25c0-5.43-3.4-9.18-8.49-9.18c-6.46,0-10.38,5.43-10.38,11.89
		c0,5.34,3.32,9.09,8.57,9.09C325.45,52.06,329.37,46.63,329.37,40.25"/>
	<path class="st0" d="M287.97,52.14c-3.58,0-6.2-1.77-5.51-6.81l2.02-14.26h13.7c2.11-4.26,4.91-7.54,8.92-9.61h-21.24l1.94-13.83
		h-11.03l-1.94,13.83h-8.14l-4.52,9.61h10.86l-2.2,15.72c-1.51,10.12,3.58,15.64,13.35,15.64c6.98,0,11.46-2.71,13.1-3.92
		l-2.97-8.49C293.19,50.85,291.12,52.14,287.97,52.14"/>
	<path class="st0" d="M384.42,39.48l-3.14,22.18h-11.42l2.89-20.81c0.95-6.55-1.85-9.86-6.63-9.86c-5.34,0-8.92,3.58-9.69,9.69
		l-2.97,20.98h-11.46l5.69-40.19h9.26l-0.95,6.03c2.8-3.92,7.71-6.81,14.17-6.81C380.33,20.7,386.1,27.93,384.42,39.48"/>
	<path class="st0" d="M120.84,81.13c0-3.27,2.54-5.82,5.99-5.82c3.45,0,5.94,2.5,5.94,5.82s-2.5,5.77-5.94,5.77
		C123.38,86.91,120.84,84.41,120.84,81.13 M130.49,81.13c0-2.15-1.55-3.75-3.66-3.75c-2.15,0-3.7,1.64-3.7,3.75s1.59,3.75,3.7,3.75
		S130.49,83.29,130.49,81.13"/>
	<polygon class="st0" points="147.76,75.45 147.76,86.91 146.51,86.91 139.79,79.32 139.79,86.78 137.59,86.78 137.59,75.32 
		138.84,75.32 145.61,82.9 145.61,75.45 	"/>
	<polygon class="st0" points="163.48,75.45 163.48,86.91 162.23,86.91 155.47,79.32 155.47,86.78 153.32,86.78 153.32,75.32 
		154.57,75.32 161.29,82.9 161.29,75.45 	"/>
	<polygon class="st0" points="176.84,84.84 176.84,86.78 169,86.78 169,75.45 176.79,75.45 176.79,77.43 171.24,77.43 171.24,80.06 
		176.1,80.06 176.1,82.04 171.24,82.04 171.24,84.84 	"/>
	<path class="st0" d="M181.02,81.13c0-3.27,2.41-5.82,6.03-5.82c1.98,0,3.23,0.69,3.75,1.08l-0.99,1.77
		c-0.26-0.17-1.16-0.78-2.63-0.78c-2.33,0-3.88,1.46-3.88,3.7s1.51,3.75,3.88,3.75c1.46,0,2.37-0.56,2.63-0.78l0.95,1.77
		c-0.52,0.39-1.72,1.08-3.75,1.08C183.38,86.91,181.02,84.36,181.02,81.13"/>
	<polygon class="st0" points="204.28,77.43 200.53,77.43 200.53,86.78 198.29,86.78 198.29,77.43 194.54,77.43 194.54,75.45 
		204.28,75.45 	"/>
	<rect x="208.5" y="75.45" class="st0" width="2.24" height="11.33"/>
	<polygon class="st0" points="225.73,75.45 221.03,86.78 219.61,86.78 214.87,75.45 217.37,75.45 219.65,81.43 220.39,83.72 
		221.08,81.43 223.32,75.45 	"/>
	<rect x="229.91" y="75.45" class="st0" width="2.24" height="11.33"/>
	<polygon class="st0" points="246.1,77.43 242.36,77.43 242.36,86.78 240.12,86.78 240.12,77.43 236.37,77.43 236.37,75.45 
		246.1,75.45 	"/>
	<polygon class="st0" points="256.14,82.34 256.14,86.78 253.9,86.78 253.9,82.34 249.77,75.45 252.39,75.45 255.11,80.14 
		257.82,75.45 260.32,75.45 	"/>
	<path class="st0" d="M270.4,85.53l1.12-1.77c1.03,0.82,2.15,1.21,3.32,1.21c1.03,0,1.77-0.43,1.77-1.34c0-0.9-0.65-1.29-2.33-1.77
		c-1.9-0.52-3.4-1.29-3.4-3.27c0-1.98,1.64-3.32,4.09-3.32c1.64,0,2.89,0.47,3.79,1.16l-1.03,1.68c-0.78-0.56-1.64-0.9-2.8-0.9
		c-1.03,0-1.81,0.39-1.81,1.21s0.73,1.08,2.28,1.55c1.9,0.56,3.4,1.29,3.4,3.49c0,2.11-1.59,3.45-4.01,3.45
		C272.94,86.91,271.52,86.43,270.4,85.53"/>
	<polygon class="st0" points="288.84,82.34 288.84,86.78 286.6,86.78 286.6,82.34 282.46,75.45 285.09,75.45 287.8,80.14 
		290.52,75.45 293.01,75.45 	"/>
	<path class="st0" d="M295.9,85.53l1.12-1.77c1.03,0.82,2.15,1.21,3.32,1.21c1.03,0,1.77-0.43,1.77-1.34c0-0.9-0.65-1.29-2.33-1.77
		c-1.9-0.52-3.4-1.29-3.4-3.27c0-1.98,1.64-3.32,4.09-3.32c1.64,0,2.89,0.47,3.79,1.16l-1.03,1.68c-0.78-0.56-1.64-0.9-2.8-0.9
		c-1.03,0-1.81,0.39-1.81,1.21s0.73,1.08,2.28,1.55c1.9,0.56,3.4,1.29,3.4,3.49c0,2.11-1.59,3.45-4.01,3.45
		C298.44,86.91,297.06,86.43,295.9,85.53"/>
	<polygon class="st0" points="317.96,77.43 314.21,77.43 314.21,86.78 311.97,86.78 311.97,77.43 308.22,77.43 308.22,75.45 
		317.96,75.45 	"/>
	<polygon class="st0" points="329.97,84.84 329.97,86.78 322.18,86.78 322.18,75.45 329.93,75.45 329.93,77.43 324.42,77.43 
		324.42,80.06 329.29,80.06 329.29,82.04 324.42,82.04 324.42,84.84 	"/>
	<polygon class="st0" points="344.84,86.78 344.75,79.97 341.61,85.44 340.23,85.44 337.17,79.97 337.04,86.78 334.89,86.78 
		335.23,75.45 336.65,75.45 340.92,82.9 345.31,75.45 346.69,75.45 347.03,86.78 	"/>
	<path class="st0" d="M351.43,85.53l1.12-1.77c1.03,0.82,2.15,1.21,3.32,1.21c1.03,0,1.77-0.43,1.77-1.34c0-0.9-0.65-1.29-2.33-1.77
		c-1.9-0.52-3.4-1.29-3.4-3.27c0-1.98,1.64-3.32,4.09-3.32c1.64,0,2.89,0.47,3.79,1.16l-1.03,1.68c-0.78-0.56-1.64-0.9-2.8-0.9
		c-1.03,0-1.81,0.39-1.81,1.21s0.73,1.08,2.28,1.55c1.94,0.56,3.4,1.29,3.4,3.49c0,2.11-1.59,3.45-4.01,3.45
		C353.97,86.91,352.59,86.43,351.43,85.53"/>
</g>
<linearGradient id="SVGID_1_" gradientUnits="userSpaceOnUse" x1="28.143" y1="9.9197" x2="73.1894" y2="86.5406">
	<stop  offset="0" style="stop-color:#F16123"/>
	<stop  offset="1" style="stop-color:#5D3683"/>
</linearGradient>
<path class="st1" d="M72.87,8.4H27.62L5,47.51l22.62,39.12h45.24l22.62-39.12L72.87,8.4z M59.98,30.31l8.78,15.18l-17.63,0.06
	l-8.71-15.23H59.98z M39.5,32l8.71,15.22l-8.7,15.1l-8.77-15.17L39.5,32z M42.42,64.01l8.7-15.1l17.62-0.06l-8.77,15.16H42.42z
	 M68.95,11.76l-8.97,15.19H38.54L27.82,45.49L9.88,45.78l19.68-34.03H68.95z M27.83,48.85l10.71,18.51h21.43l9.04,15.9H29.56
	L9.83,49.15L27.83,48.85z M73.6,47.16L62.89,28.64l8.99-15.23l19.73,34.1l-19.7,34.06l-9.03-15.88L73.6,47.16z"/>
</svg>
